<?xml version="1.0" encoding="iso-8859-1"?>
<!-- Generator: Adobe Illustrator 19.0.0, SVG Export Plug-In . SVG Version: 6.00 Build 0)  -->
<svg version="1.1" id="Layer_1" xmlns="http://www.w3.org/2000/svg" xmlns:xlink="http://www.w3.org/1999/xlink" x="0px" y="0px"
	 viewBox="0 0 504.128 504.128" style="enable-background:new 0 0 504.128 504.128;" xml:space="preserve">
<path style="fill:#FCA883;" d="M314.985,502.949l8.097-4.206c5.12-2.662,7.121-8.988,4.443-14.084l-20.299-44.615l55.446,57.194
	c4.009,4.6,10.988,5.081,15.596,1.071l7.263-6.349c4.6-4.017,5.081-10.996,1.079-15.588l-56.288-71.948l70.12,63.071
	c4.324,4.324,11.327,4.324,15.644,0l6.814-6.829c4.324-4.317,4.324-11.311,0-15.628l-57.958-64.449l62.125,33.122
	c5.222,3.151,12.02,1.481,15.171-3.742l4.994-8.271c3.143-5.222,1.481-12.036-3.749-15.179l-96.091-65.142l-4.191-4.506
	l52.342-15.596c6.105-0.039,11.043-5.002,11.004-11.083l-0.008-9.665c-0.016-6.105-4.986-11.051-11.083-11.02l-101.25-5.065
	l-92.01-98.43c-5.222-5.215-21.559-2.08-26.782,3.151l-74.854,74.862c-5.222,5.215-9.964,19.984-4.742,25.206l131.608,115.854
	l73.484,113.396C303.571,503.627,309.896,505.604,314.985,502.949z"/>
<path style="fill:#F99A70;" d="M202.195,166.014c-5.222-5.215-21.559-2.08-26.782,3.151l-74.854,74.862
	c-3.923,3.923-7.57,13.233-6.924,19.85H293.67L202.195,166.014z"/>
<path style="fill:#FFCCA9;" d="M323.09,498.735c5.12-2.662,7.121-8.988,4.443-14.084l-20.299-44.615l55.446,57.194
	c4.009,4.6,10.988,5.081,15.596,1.071l7.263-6.349c4.6-4.017,5.081-10.996,1.079-15.588l-56.288-71.948l70.12,63.071
	c4.324,4.324,11.327,4.324,15.644,0l6.814-6.829c4.324-4.317,4.324-11.311,0-15.628l-57.958-64.449l62.125,33.122
	c5.222,3.151,12.02,1.481,15.171-3.742l4.994-8.271c3.143-5.222,1.481-12.036-3.749-15.179l-96.091-65.142l-4.191-4.506
	l52.342-15.596c6.105-0.039,11.043-5.002,11.004-11.083l-0.008-9.665c-0.016-6.105-4.986-11.051-11.083-11.02l-101.258-5.057
	l-0.819-0.866v223.319l7.522,11.603c2.662,5.128,8.988,7.105,14.076,4.45L323.09,498.735z"/>
<path style="fill:#F99A70;" d="M320.459,497.987c5.12-2.686,7.113-8.995,4.443-14.092l-17.668-43.851l55.446,57.194
	c4.009,4.6,10.988,5.081,15.596,1.071l4.159-5.175c4.6-4.017,5.088-10.988,1.087-15.588l-53.201-73.114l70.12,63.071
	c4.324,4.324,11.327,4.324,15.644,0l4.049-5.593c4.317-4.324,4.317-11.319,0-15.636l-55.194-65.678l62.125,33.122
	c5.222,3.151,12.02,1.481,15.171-3.742l1.489-4.506c3.143-5.23,1.481-12.036-3.749-15.187l-92.593-68.892l-4.191-4.506
	l52.342-15.596c6.105-0.039,11.043-5.002,11.004-11.083l-0.008-3.253c-0.016-6.105-4.986-11.043-11.083-10.996l-101.242-11.516
	l-0.819-0.866v223.319l7.522,11.603c2.662,5.128,8.988,7.105,14.076,4.45L320.459,497.987z"/>
<polygon style="fill:#FFAA00;" points="41.648,0 41.648,227.092 91.658,277.094 205.196,163.556 "/>
<polygon style="fill:#FF8500;" points="41.648,0 91.973,247.257 91.658,277.094 205.196,163.556 "/>
<path style="fill:#FF6700;" d="M232.537,164.966c4.222,4.222,4.222,11.075,0,15.289L106.632,306.168
	c-4.222,4.23-11.075,4.23-15.305,0l-20.708-20.724c-4.222-4.222-4.222-11.059,0-15.289L196.516,144.25
	c4.222-4.222,11.067-4.222,15.289,0L232.537,164.966z"/>
<path style="fill:#48B6ED;" d="M462.48,209.195c0,17.14-13.903,31.051-31.051,31.051s-31.051-13.919-31.051-31.051
	c0-17.156,13.911-62.937,31.051-62.937C448.577,146.251,462.48,192.039,462.48,209.195z"/>
<path style="fill:#3D9DD8;" d="M431.429,146.251c17.156,0,31.051,45.781,31.051,62.937c0,17.14-13.903,31.051-31.051,31.051"/>
<path style="fill:#48B6ED;" d="M450.326,84.141c0,10.437-8.46,18.905-18.897,18.905c-10.437,0-18.913-8.468-18.913-18.905
	s8.476-38.313,18.913-38.313C441.866,45.828,450.326,73.696,450.326,84.141z"/>
<path style="fill:#3D9DD8;" d="M431.429,45.82c10.437,0,18.897,27.876,18.897,38.313s-8.46,18.905-18.897,18.905"/>
<g>
</g>
<g>
</g>
<g>
</g>
<g>
</g>
<g>
</g>
<g>
</g>
<g>
</g>
<g>
</g>
<g>
</g>
<g>
</g>
<g>
</g>
<g>
</g>
<g>
</g>
<g>
</g>
<g>
</g>
</svg>
