<?xml version="1.0" encoding="iso-8859-1"?>
<!-- Generator: Adobe Illustrator 19.0.0, SVG Export Plug-In . SVG Version: 6.00 Build 0)  -->
<svg version="1.1" id="Layer_1" xmlns="http://www.w3.org/2000/svg" xmlns:xlink="http://www.w3.org/1999/xlink" x="0px" y="0px"
	 viewBox="0 0 504.119 504.119" style="enable-background:new 0 0 504.119 504.119;" xml:space="preserve">
<g>
	<path style="fill:#BFCADB;" d="M191.772,128.313c-16.329-5.845-32.398-8.696-49.144-8.696C63.976,119.617,0,184.231,0,263.662
		c0,79.234,63.976,143.691,142.62,143.691c16.746,0,32.815-2.844,49.144-8.704c5.813-2.079,9.696-7.601,9.696-13.785v-40.29
		c0-5.325-2.883-10.216-7.546-12.8c-4.624-2.568-10.327-2.458-14.832,0.386c-10.973,6.798-23.245,10.248-36.47,10.248
		c-40.865,0-74.114-35.32-74.114-78.738c0-43.615,33.248-79.092,74.114-79.092c12.863,0,25.127,3.568,36.47,10.618
		c4.506,2.828,10.208,2.954,14.832,0.37c4.663-2.576,7.546-7.491,7.546-12.816v-40.621
		C201.468,135.922,197.585,130.401,191.772,128.313z"/>
	<path style="fill:#BFCADB;" d="M360.921,119.617c-78.659,0-142.627,64.614-142.627,144.045
		c0,79.234,63.968,143.691,142.627,143.691c78.62,0,142.604-64.465,142.604-143.691
		C503.532,184.231,439.548,119.617,360.921,119.617z"/>
</g>
<g>
	<path style="fill:#175ECE;" d="M191.772,105.998c-16.329-5.845-32.398-8.696-49.144-8.696C63.976,97.302,0,161.916,0,241.347
		c0,79.234,63.976,143.699,142.62,143.699c16.746,0,32.815-2.844,49.144-8.704c5.813-2.079,9.696-7.601,9.696-13.785v-40.29
		c0-5.325-2.883-10.216-7.546-12.8c-4.624-2.584-10.327-2.458-14.832,0.37c-10.973,6.814-23.245,10.264-36.47,10.264
		c-40.865,0-74.114-35.32-74.114-78.746c0-43.615,33.248-79.092,74.114-79.092c12.863,0,25.127,3.568,36.47,10.618
		c4.506,2.828,10.208,2.954,14.832,0.37c4.663-2.584,7.546-7.491,7.546-12.816v-40.629
		C201.468,113.607,197.585,108.085,191.772,105.998z"/>
	<path style="fill:#175ECE;" d="M360.921,97.302c-78.659,0-142.627,64.614-142.627,144.045c0,79.234,63.968,143.699,142.627,143.699
		c78.62,0,142.604-64.465,142.604-143.699C503.532,161.916,439.548,97.302,360.921,97.302z"/>
</g>
<g>
	<path style="fill:#2D7AEA;" d="M360.921,97.302c-78.659,0-142.627,64.614-142.627,144.045"/>
	<path style="fill:#2D7AEA;" d="M143.076,96.766c-78.643,0-142.62,64.614-142.62,144.045"/>
</g>
<g>
	<path style="fill:#0038A8;" d="M260.175,342.14c56.021,56.029,146.865,56.367,202.461,0.756
		c55.611-55.603,55.265-146.416-0.764-202.437"/>
	<path style="fill:#0038A8;" d="M142.62,385.046c16.746,0,32.815-2.844,49.144-8.704c5.813-2.079,9.696-7.601,9.696-13.785v-40.29
		c0-5.325-2.883-10.216-7.546-12.8c-4.624-2.584-10.327-2.458-14.832,0.37c-10.973,6.814-23.245,10.264-36.47,10.264
		c-40.795,0-73.98-35.202-74.106-78.509l-56.761,56.777C33.697,349.292,84.078,385.046,142.62,385.046z"/>
	<path style="fill:#0038A8;" d="M179.09,172.873c4.506,2.828,10.208,2.954,14.832,0.37c4.663-2.584,7.546-7.491,7.546-12.816
		v-40.629c0-3.111-0.985-6.049-2.686-8.444l-51.271,51.247C158.586,163.397,169.204,166.729,179.09,172.873z"/>
</g>
<path style="fill:#FF4A03;" d="M407.647,292.122h-44.024l37.841-48.246c8.223-10.508,12.973-19.385,12.973-33.571
	c0-27.404-23.773-49.648-52.996-49.648c-29.223,0-52.996,22.244-52.996,49.648c0,12.304,4.884,23.552,12.879,32.28l20.598-27.104
	c-0.457-1.646-0.764-3.356-0.764-5.167c0-10.957,8.909-19.873,19.858-19.873c10.894,0,20.078,9.09,20.078,19.873
	c0,4.537-1.694,8.72-4.387,12.091l-26.971,36.344c0,0,0.158,0.032,0.244,0.063l-41.409,53.618c-1.339,1.741-1.583,4.08-0.614,6.065
	c0.977,1.953,2.977,3.214,5.159,3.214h94.507c3.167,0,5.758-2.584,5.758-5.766V297.88
	C413.405,294.689,410.813,292.122,407.647,292.122z"/>
<path style="fill:#BA0000;" d="M413.405,315.918v-18.062c0-3.167-2.591-5.742-5.758-5.742h-44.024l37.841-48.246
	c8.223-10.508,12.973-19.385,12.973-33.571c0-6.569-1.394-12.816-3.875-18.542l-43.047,43.047l-17.762,23.93
	c0,0,0.158,0.032,0.244,0.063l-41.409,53.618c-1.339,1.741-1.583,4.08-0.614,6.065c0.977,1.953,2.977,3.214,5.159,3.214h94.507
	C410.813,321.692,413.405,319.108,413.405,315.918z"/>
<g>
</g>
<g>
</g>
<g>
</g>
<g>
</g>
<g>
</g>
<g>
</g>
<g>
</g>
<g>
</g>
<g>
</g>
<g>
</g>
<g>
</g>
<g>
</g>
<g>
</g>
<g>
</g>
<g>
</g>
</svg>
