<?xml version="1.0" encoding="iso-8859-1"?>
<!-- Generator: Adobe Illustrator 19.0.0, SVG Export Plug-In . SVG Version: 6.00 Build 0)  -->
<svg version="1.1" id="Layer_1" xmlns="http://www.w3.org/2000/svg" xmlns:xlink="http://www.w3.org/1999/xlink" x="0px" y="0px"
	 viewBox="0 0 504.123 504.123" style="enable-background:new 0 0 504.123 504.123;" xml:space="preserve">
<path style="fill:#ABD3DD;" d="M461.785,464.967c0,21.63-17.542,39.156-39.14,39.156h-12.249c-21.622,0-39.156-17.526-39.156-39.156
	V22.024C371.239,0.41,388.773,0,410.396,0h12.249c21.599,0,39.14,0.41,39.14,22.024V464.967z"/>
<path style="fill:#8DC6D3;" d="M410.403,0h12.249c21.599,0,39.14,0.41,39.14,22.024v442.943c0,21.63-17.542,39.156-39.14,39.156
	h-12.249"/>
<path style="fill:#FFB000;" d="M371.247,215.292v249.675c0,21.63,17.534,39.156,39.156,39.156h12.249
	c21.599,0,39.14-17.526,39.14-39.156V215.292H371.247z"/>
<path style="fill:#FF8206;" d="M371.247,464.967c0,21.63,17.534,39.156,39.156,39.156h12.249c21.599,0,39.14-17.526,39.14-39.156
	V233.015h-90.545V464.967z"/>
<path style="fill:#FF4A03;" d="M410.403,504.123h12.249c21.599,0,39.14-17.526,39.14-39.156V233.015h-51.381v271.108H410.403z"/>
<path style="fill:#8DC6D3;" d="M457.633,106.953l4.151-4.151V22.024C461.785,0.41,444.243,0,422.644,0h-12.249
	c-21.126,0-38.235,0.528-39.014,20.732L457.633,106.953z"/>
<path style="fill:#C4E3E8;" d="M477.696,9.783c0,5.411-4.372,9.791-9.783,9.791H365.127c-5.411,0-9.775-4.387-9.775-9.791l0,0
	c0-5.396,4.372-9.783,9.775-9.783h102.778C473.324,0,477.696,4.395,477.696,9.783L477.696,9.783z"/>
<path style="fill:#ABD3DD;" d="M477.696,9.783L477.696,9.783c0,5.411-4.372,9.791-9.783,9.791H365.127
	c-5.411,0-9.775-4.387-9.775-9.791l0,0"/>
<g>
	<path style="fill:#C4E3E8;" d="M420.588,62.204c0,1.363-1.079,2.458-2.426,2.458h-32.626c-1.363,0-2.458-1.095-2.458-2.458l0,0
		c0-1.355,1.095-2.442,2.458-2.442h32.626C419.509,59.77,420.588,60.857,420.588,62.204L420.588,62.204z"/>
	<path style="fill:#C4E3E8;" d="M401.014,80.959c0,1.363-1.087,2.45-2.434,2.45h-13.044c-1.363,0-2.458-1.087-2.458-2.45l0,0
		c0-1.355,1.095-2.442,2.458-2.442h13.044C399.927,78.525,401.014,79.604,401.014,80.959L401.014,80.959z"/>
	<path style="fill:#C4E3E8;" d="M420.588,98.918c0,1.363-1.079,2.45-2.426,2.45h-32.626c-1.363,0-2.458-1.087-2.458-2.45l0,0
		c0-1.363,1.095-2.45,2.458-2.45h32.626C419.509,96.469,420.588,97.556,420.588,98.918L420.588,98.918z"/>
	<path style="fill:#C4E3E8;" d="M401.014,117.665c0,1.363-1.087,2.458-2.434,2.458h-13.044c-1.363,0-2.458-1.103-2.458-2.458l0,0
		c0-1.355,1.095-2.442,2.458-2.442h13.044C399.927,115.232,401.014,116.319,401.014,117.665L401.014,117.665z"/>
	<path style="fill:#C4E3E8;" d="M420.588,135.625c0,1.355-1.079,2.458-2.426,2.458h-32.626c-1.363,0-2.458-1.111-2.458-2.458l0,0
		c0-1.355,1.095-2.45,2.458-2.45h32.626C419.509,133.175,420.588,134.27,420.588,135.625L420.588,135.625z"/>
	<path style="fill:#C4E3E8;" d="M401.014,154.38c0,1.378-1.087,2.45-2.434,2.45h-13.044c-1.363,0-2.458-1.071-2.458-2.45l0,0
		c0-1.355,1.095-2.426,2.458-2.426h13.044C399.927,151.954,401.014,153.025,401.014,154.38L401.014,154.38z"/>
	<path style="fill:#C4E3E8;" d="M420.588,172.331c0,1.371-1.079,2.45-2.426,2.45h-32.626c-1.363,0-2.458-1.079-2.458-2.45l0,0
		c0-1.355,1.095-2.442,2.458-2.442h32.626C419.509,169.889,420.588,170.976,420.588,172.331L420.588,172.331z"/>
	<path style="fill:#C4E3E8;" d="M401.014,191.086c0,1.355-1.087,2.458-2.434,2.458h-13.044c-1.363,0-2.458-1.111-2.458-2.458l0,0
		c0-1.355,1.095-2.45,2.458-2.45h13.044C399.927,188.637,401.014,189.731,401.014,191.086L401.014,191.086z"/>
	<path style="fill:#C4E3E8;" d="M420.588,209.038c0,1.363-1.079,2.458-2.426,2.458h-32.626c-1.363,0-2.458-1.103-2.458-2.458l0,0
		c0-1.355,1.095-2.45,2.458-2.45h32.626C419.509,206.596,420.588,207.683,420.588,209.038L420.588,209.038z"/>
	<path style="fill:#C4E3E8;" d="M401.014,227.793c0,1.355-1.087,2.458-2.434,2.458h-13.044c-1.363,0-2.458-1.111-2.458-2.458l0,0
		c0-1.331,1.095-2.442,2.458-2.442h13.044C399.927,225.351,401.014,226.462,401.014,227.793L401.014,227.793z"/>
	<path style="fill:#C4E3E8;" d="M420.588,245.76c0,1.347-1.079,2.45-2.426,2.45h-32.626c-1.363,0-2.458-1.103-2.458-2.45l0,0
		c0-1.363,1.095-2.458,2.458-2.458h32.626C419.509,243.31,420.588,244.397,420.588,245.76L420.588,245.76z"/>
	<path style="fill:#C4E3E8;" d="M401.014,264.499c0,1.363-1.087,2.458-2.434,2.458h-13.044c-1.363,0-2.458-1.103-2.458-2.458l0,0
		c0-1.355,1.095-2.442,2.458-2.442h13.044C399.927,262.065,401.014,263.144,401.014,264.499L401.014,264.499z"/>
	<path style="fill:#C4E3E8;" d="M420.588,282.451c0,1.363-1.079,2.458-2.426,2.458h-32.626c-1.363,0-2.458-1.095-2.458-2.458l0,0
		c0-1.363,1.095-2.45,2.458-2.45h32.626C419.509,280.009,420.588,281.096,420.588,282.451L420.588,282.451z"/>
	<path style="fill:#C4E3E8;" d="M401.014,301.221c0,1.355-1.087,2.45-2.434,2.45h-13.044c-1.363,0-2.458-1.095-2.458-2.45l0,0
		c0-1.363,1.095-2.458,2.458-2.458h13.044C399.927,298.772,401.014,299.859,401.014,301.221L401.014,301.221z"/>
	<path style="fill:#C4E3E8;" d="M420.588,319.173c0,1.363-1.079,2.45-2.426,2.45h-32.626c-1.363,0-2.458-1.087-2.458-2.45l0,0
		c0-1.355,1.095-2.45,2.458-2.45h32.626C419.509,316.723,420.588,317.818,420.588,319.173L420.588,319.173z"/>
	<path style="fill:#C4E3E8;" d="M401.014,337.912c0,1.363-1.087,2.458-2.434,2.458h-13.044c-1.363,0-2.458-1.095-2.458-2.458l0,0
		c0-1.363,1.095-2.45,2.458-2.45h13.044C399.927,335.47,401.014,336.557,401.014,337.912L401.014,337.912z"/>
	<path style="fill:#C4E3E8;" d="M420.588,355.872c0,1.355-1.079,2.458-2.426,2.458h-32.626c-1.363,0-2.458-1.103-2.458-2.458l0,0
		c0-1.347,1.095-2.45,2.458-2.45h32.626C419.509,353.422,420.588,354.525,420.588,355.872L420.588,355.872z"/>
	<path style="fill:#C4E3E8;" d="M401.014,374.634c0,1.363-1.087,2.45-2.434,2.45h-13.044c-1.363,0-2.458-1.087-2.458-2.45l0,0
		c0-1.355,1.095-2.45,2.458-2.45h13.044C399.927,372.185,401.014,373.28,401.014,374.634L401.014,374.634z"/>
	<path style="fill:#C4E3E8;" d="M420.588,392.586c0,1.355-1.079,2.458-2.426,2.458h-32.626c-1.363,0-2.458-1.103-2.458-2.458l0,0
		c0-1.355,1.095-2.458,2.458-2.458h32.626C419.509,390.128,420.588,391.231,420.588,392.586L420.588,392.586z"/>
	<path style="fill:#C4E3E8;" d="M401.014,411.341c0,1.363-1.087,2.45-2.434,2.45h-13.044c-1.363,0-2.458-1.087-2.458-2.45l0,0
		c0-1.355,1.095-2.45,2.458-2.45h13.044C399.927,408.891,401.014,409.986,401.014,411.341L401.014,411.341z"/>
	<path style="fill:#C4E3E8;" d="M420.588,429.292c0,1.355-1.079,2.442-2.426,2.442h-32.626c-1.363,0-2.458-1.087-2.458-2.442l0,0
		c0-1.363,1.095-2.45,2.458-2.45h32.626C419.509,426.843,420.588,427.93,420.588,429.292L420.588,429.292z"/>
	<path style="fill:#C4E3E8;" d="M401.014,448.047c0,1.355-1.087,2.458-2.434,2.458h-13.044c-1.363,0-2.458-1.103-2.458-2.458l0,0
		c0-1.355,1.095-2.458,2.458-2.458h13.044C399.927,445.59,401.014,446.692,401.014,448.047L401.014,448.047z"/>
</g>
<g>
	<path style="fill:#FFB000;" d="M344.71,76.564l-62.306-35.966c-4.08-2.363-9.106-2.363-13.186,0l-55.658,32.138l-55.658-32.138
		c-4.08-2.363-9.106-2.363-13.186,0L82.408,76.564c-4.08,2.355-6.593,6.711-6.593,11.422v71.94c0,4.718,2.513,9.066,6.593,11.422
		l55.674,32.146v65.292c0,4.71,2.505,9.059,6.585,11.422l62.291,35.974c2.032,1.182,4.324,1.772,6.593,1.772
		s4.553-0.583,6.593-1.772l62.306-35.974c4.088-2.355,6.601-6.711,6.601-11.422v-65.292l55.658-32.146
		c4.08-2.355,6.585-6.711,6.585-11.422v-71.94C351.295,83.267,348.782,78.919,344.71,76.564z M102.187,95.602L151.3,67.237
		l49.026,28.302v56.832l-49.026,28.31l-49.113-28.365V95.602z M262.664,261.175l-49.113,28.365l-49.097-28.365v-56.714
		l49.097-28.365l49.113,28.365V261.175z M324.923,152.316l-49.12,28.365l-49.01-28.31V95.539l49.01-28.302l49.12,28.365V152.316z"/>
	<path style="fill:#FFB000;" d="M124.589,352.587l-21.638,12.509l-21.614-12.477V327.57l21.614-12.477l21.638,12.501V352.587z
		 M53.862,279.615l21.654-12.501l21.638,12.501v25.001l-21.638,12.501l-21.654-12.501V279.615z M26.427,327.593l21.646-12.501
		l21.599,12.477v25.049l-21.591,12.477l-21.646-12.509v-24.993H26.427z"/>
	<path style="fill:#FFB000;" d="M196.907,435.814l27.459,15.856c1.804,1.04,4.017,1.04,5.813,0L254.7,437.5l24.537,14.171
		c1.804,1.04,4.017,1.04,5.797,0l27.467-15.856c1.796-1.048,2.899-2.954,2.899-5.033v-31.705c0-2.079-1.111-4.001-2.899-5.033
		l-24.537-14.171v-28.774c0-2.087-1.111-3.994-2.899-5.041l-27.459-15.856c-0.89-0.512-1.89-0.78-2.899-0.78
		c-1.008,0-2.009,0.26-2.907,0.78l-27.451,15.856c-1.804,1.04-2.907,2.954-2.907,5.041v28.774l-24.537,14.171
		c-1.796,1.032-2.907,2.954-2.907,5.033v31.705C194.001,432.861,195.119,434.767,196.907,435.814z"/>
</g>
<g>
</g>
<g>
</g>
<g>
</g>
<g>
</g>
<g>
</g>
<g>
</g>
<g>
</g>
<g>
</g>
<g>
</g>
<g>
</g>
<g>
</g>
<g>
</g>
<g>
</g>
<g>
</g>
<g>
</g>
</svg>
