<?xml version="1.0" encoding="iso-8859-1"?>
<!-- Generator: Adobe Illustrator 19.0.0, SVG Export Plug-In . SVG Version: 6.00 Build 0)  -->
<svg version="1.1" id="Layer_1" xmlns="http://www.w3.org/2000/svg" xmlns:xlink="http://www.w3.org/1999/xlink" x="0px" y="0px"
	 viewBox="0 0 504.123 504.123" style="enable-background:new 0 0 504.123 504.123;" xml:space="preserve">
<path style="fill:#B9D4DB;" d="M504.123,472.292c0,17.573-14.265,31.831-31.846,31.831H31.839C14.257,504.123,0,489.866,0,472.292
	V31.846C0,14.265,14.257,0,31.839,0h440.438c17.581,0,31.846,14.265,31.846,31.846V472.292z"/>
<path style="fill:#A5C4CE;" d="M472.277,0c17.581,0,31.846,14.265,31.846,31.846v440.446c0,17.573-14.265,31.831-31.846,31.831
	H31.839C14.257,504.123,0,489.866,0,472.292"/>
<path style="fill:#133F7F;" d="M447.898,100.013l-93.034-53.713c-6.081-3.521-13.596-3.521-19.692,0l-83.109,47.994l-83.117-47.994
	c-6.089-3.521-13.603-3.521-19.692,0l-93.034,53.713c-6.081,3.513-9.846,10.012-9.846,17.054v107.425
	c0,7.042,3.765,13.54,9.846,17.061l83.133,47.994v97.501c0,7.034,3.749,13.533,9.846,17.054l93.019,53.721
	c3.04,1.764,6.443,2.639,9.838,2.639c3.411,0,6.806-0.874,9.854-2.639l93.042-53.721c6.089-3.513,9.846-10.012,9.846-17.054V289.54
	l83.117-47.986c6.081-3.521,9.846-10.019,9.846-17.061V117.067C457.744,110.033,453.986,103.534,447.898,100.013z M85.756,128.441
	l73.35-42.346l73.2,42.26v84.85l-73.2,42.268l-73.35-42.354C85.756,213.118,85.756,128.441,85.756,128.441z M325.404,375.674
	l-73.35,42.354l-73.318-42.354v-84.685l73.318-42.346l73.35,42.346V375.674z M418.359,213.126l-73.342,42.354l-73.192-42.268
	v-84.858l73.192-42.26l73.342,42.346V213.126z"/>
<path style="fill:#0D2A4C;" d="M418.359,128.441v84.685l-73.342,42.354l-73.192-42.268V200.46l-87.032,87.04l67.245-38.849
	l73.35,42.346v84.685l-73.35,42.354l-73.318-42.354v-82.125l-39.385,39.385v54.107c0,7.034,3.749,13.533,9.846,17.054l93.019,53.721
	c3.04,1.764,6.443,2.639,9.838,2.639c3.411,0,6.806-0.874,9.854-2.639l93.042-53.721c6.089-3.513,9.846-10.012,9.846-17.054V289.54
	l83.117-47.986c6.081-3.521,9.846-10.019,9.846-17.061V117.067c0-7.042-3.765-13.54-9.846-17.054l-47.947-27.687l-28.83,28.83
	L418.359,128.441z"/>
<g>
</g>
<g>
</g>
<g>
</g>
<g>
</g>
<g>
</g>
<g>
</g>
<g>
</g>
<g>
</g>
<g>
</g>
<g>
</g>
<g>
</g>
<g>
</g>
<g>
</g>
<g>
</g>
<g>
</g>
</svg>
