<?xml version="1.0" encoding="iso-8859-1"?>
<!-- Generator: Adobe Illustrator 19.0.0, SVG Export Plug-In . SVG Version: 6.00 Build 0)  -->
<svg version="1.1" id="Layer_1" xmlns="http://www.w3.org/2000/svg" xmlns:xlink="http://www.w3.org/1999/xlink" x="0px" y="0px"
	 viewBox="0 0 504.12 504.12" style="enable-background:new 0 0 504.12 504.12;" xml:space="preserve">
<path style="fill:#5BC914;" d="M499.259,233.927L391.353,47.032c-6.467-11.225-18.44-18.125-31.382-18.125h-215.82
	c-12.95,0-24.923,6.9-31.382,18.125L4.856,233.935c-6.475,11.217-6.475,25.033,0,36.25L112.77,457.089
	c6.459,11.225,18.44,18.125,31.382,18.125h215.812c12.95,0,24.915-6.9,31.382-18.125l107.906-186.904
	C505.742,258.96,505.742,245.144,499.259,233.927z"/>
<path style="fill:#60E807;" d="M324.399,28.907H144.152c-12.95,0-24.923,6.9-31.382,18.125L4.856,233.935
	c-6.475,11.217-6.475,25.033,0,36.25l41.204,71.373H226.3c12.958,0,24.915-6.908,31.382-18.125l107.914-186.912
	c6.467-11.217,6.467-25.033,0-36.25L324.399,28.907z"/>
<path style="fill:#72F71C;" d="M144.152,28.907c-12.95,0-24.923,6.9-31.382,18.125L4.856,233.935
	c-6.475,11.217-6.475,25.033,0,36.25l41.204,71.373"/>
<path style="fill:#087C66;" d="M202.236,187.572h-16.471c-1.875,0-3.403,1.52-3.403,3.403v66.087L126.98,188.84
	c-0.646-0.803-1.607-1.26-2.647-1.26h-16.124c-1.875,0-3.395,1.52-3.395,3.403v120.092c0,1.875,1.512,3.403,3.395,3.403h16.479
	c1.875,0,3.395-1.52,3.395-3.403v-81.235l71.554,85.48c0.654,0.788,1.615,1.213,2.599,1.213c0.386,0,0.788-0.071,1.15-0.205
	c1.355-0.488,2.245-1.764,2.245-3.19V190.975C205.623,189.1,204.111,187.572,202.236,187.572z"/>
<path style="fill:#055B4A;" d="M298.24,301.48l-7.885-0.725l-1.016-0.953v-48.301c0-9.57-2.41-16.738-7.16-21.299
	c-4.718-4.513-12.107-6.806-21.953-6.806c-10.768,0-19.747,2.009-26.687,5.979c-7.562,4.317-11.39,9.988-11.39,16.857
	c0,2.977,0.701,5.112,2.135,6.546c1.426,1.434,3.592,2.135,6.632,2.135h11.808c1.875,0,3.403-1.512,3.403-3.403v-12.02
	c1.355-0.449,2.662-0.811,3.923-1.071c1.875-0.394,3.805-0.591,5.742-0.591c4.734,0,7.979,1,9.633,2.97
	c1.237,1.481,2.725,4.907,2.725,12.808v2.781c-20.512,5.041-33.485,9.586-39.637,13.879c-6.94,4.844-10.453,11.587-10.453,20.047
	c0,7.483,2.339,13.643,6.979,18.306c4.632,4.663,10.815,7.034,18.369,7.034c4.427,0,9.2-0.992,14.186-2.954
	c3.631-1.434,7.562-3.458,11.729-6.065l1.174,5.199c0.354,1.544,1.733,2.647,3.308,2.647h24.135c1.867,0,3.395-1.52,3.395-3.403
	v-6.199C301.328,303.11,299.981,301.653,298.24,301.48z M242.684,296.84c-1.859-1.89-2.765-4.474-2.765-7.885
	c0-4.246,1.749-7.601,5.356-10.24c3.694-2.71,11.366-5.774,22.867-9.137v23.757c-3.655,2.001-6.947,3.537-9.799,4.584
	C250.766,300.708,245.78,300.023,242.684,296.84z"/>
<path style="fill:#087C66;" d="M282.179,230.209c-4.718-4.513-12.107-6.806-21.953-6.806c-10.768,0-19.747,2.009-26.687,5.979
	c-7.562,4.317-11.39,9.988-11.39,16.857c0,2.977,0.701,5.112,2.135,6.546c1.426,1.434,3.592,2.135,6.632,2.135h11.808
	c1.875,0,3.403-1.512,3.403-3.403v-12.02c1.355-0.449,2.662-0.811,3.923-1.071c1.875-0.394,3.805-0.591,5.742-0.591
	c4.734,0,7.979,1,9.633,2.97c1.237,1.481,2.725,4.907,2.725,12.808v2.781c-20.512,5.041-33.485,9.586-39.637,13.879
	c-6.94,4.844-10.453,11.587-10.453,20.047c0,7.483,2.339,13.643,6.979,18.306c4.632,4.663,10.815,7.034,18.369,7.034
	c4.427,0,9.2-0.992,14.186-2.954c2.773-1.095,5.766-2.647,8.869-4.427l22.89-39.645v-17.101
	C289.339,241.938,286.937,234.77,282.179,230.209z M268.142,293.327c-3.655,2.001-6.947,3.537-9.799,4.584
	c-7.578,2.788-12.564,2.111-15.659-1.079c-1.859-1.89-2.765-4.474-2.765-7.885c0-4.246,1.749-7.601,5.356-10.24
	c3.694-2.71,11.366-5.774,22.867-9.137V293.327z"/>
<path style="fill:#055B4A;" d="M395.906,187.572h-17.503c-1.883,0-3.403,1.52-3.403,3.403v48.246h-40.046v-48.246
	c0-1.875-1.512-3.403-3.403-3.403h-17.495c-1.875,0-3.403,1.52-3.403,3.403v120.092c0,1.875,1.52,3.403,3.403,3.403h17.495
	c1.883,0,3.403-1.52,3.403-3.403v-49.617h40.046v49.617c0,1.875,1.512,3.403,3.403,3.403h17.503c1.875,0,3.403-1.52,3.403-3.403
	V190.975C399.301,189.1,397.781,187.572,395.906,187.572z"/>
<path style="fill:#087C66;" d="M334.75,189.958c-0.433-1.371-1.678-2.387-3.19-2.387h-17.495c-1.875,0-3.403,1.52-3.403,3.403
	v40.692L334.75,189.958z"/>
<g>
</g>
<g>
</g>
<g>
</g>
<g>
</g>
<g>
</g>
<g>
</g>
<g>
</g>
<g>
</g>
<g>
</g>
<g>
</g>
<g>
</g>
<g>
</g>
<g>
</g>
<g>
</g>
<g>
</g>
</svg>
