<?xml version="1.0" encoding="iso-8859-1"?>
<!-- Generator: Adobe Illustrator 19.0.0, SVG Export Plug-In . SVG Version: 6.00 Build 0)  -->
<svg version="1.1" id="Layer_1" xmlns="http://www.w3.org/2000/svg" xmlns:xlink="http://www.w3.org/1999/xlink" x="0px" y="0px"
	 viewBox="0 0 491.424 491.424" style="enable-background:new 0 0 491.424 491.424;" xml:space="preserve">
<path style="fill:#B51F63;" d="M302.07,0.022c10.886,2.497,22.788,52.098,15.21,138.705c-14.1,1.82-28.388,4.033-42.701,6.577
	c-14.155-12.8-28.577-25.104-43-36.604c19.369-48.805,39.582-82.92,55.603-98.95C296.068,0.865,301.196-0.182,302.07,0.022z"/>
<path style="fill:#EA5390;" d="M287.183,9.75c8.885-8.885,14.013-9.933,14.895-9.728c10.886,2.497,22.788,52.098,15.21,138.705
	c-14.1,1.82-28.388,4.033-42.701,6.577"/>
<path style="fill:#02994A;" d="M67.472,67.496c7.593-7.593,52.397,6.924,117.406,54.563c-5.317,15.171-10.398,31.098-15.179,47.648
	c-16.565,4.789-32.492,9.862-47.679,15.187C74.404,119.885,59.886,75.082,67.472,67.496z"/>
<path style="fill:#11D168;" d="M67.472,67.496c7.593-7.593,52.397,6.924,117.406,54.563c-5.317,15.171-10.398,31.098-15.179,47.648"
	/>
<path style="fill:#FF9D00;" d="M0.03,302.079c-0.197-0.89,0.835-6.018,9.72-14.903c16.014-16.022,50.121-36.226,98.926-55.58l0,0
	l0,0c11.508,14.415,23.812,28.853,36.604,43.008c-2.528,14.297-4.734,28.585-6.561,42.677C52.12,324.867,2.519,312.965,0.03,302.079
	z"/>
<path style="fill:#FF7F00;" d="M145.28,274.612c-2.528,14.297-4.734,28.585-6.561,42.677c-86.599,7.578-136.2-4.324-138.689-15.21
	c-0.197-0.89,0.835-6.018,9.72-14.903"/>
<path style="fill:#EA5390;" d="M189.351,491.401c-10.894-2.481-22.812-52.074-15.202-138.681
	c14.084-1.827,28.365-4.033,42.677-6.569c14.155,12.8,28.577,25.096,43.008,36.596c-19.377,48.813-39.582,82.897-55.587,98.926
	C195.362,490.558,190.242,491.613,189.351,491.401z"/>
<path style="fill:#B51F63;" d="M216.826,346.15c14.155,12.8,28.577,25.096,43.008,36.596
	c-19.377,48.813-39.582,82.897-55.587,98.926c-8.885,8.885-14.005,9.941-14.903,9.728"/>
<path style="fill:#11D168;" d="M423.95,423.958c-7.585,7.593-52.397-6.924-117.398-54.548c5.325-15.187,10.398-31.114,15.195-47.679
	c16.549-4.773,32.469-9.854,47.64-15.179C417.018,371.569,431.535,416.373,423.95,423.958z"/>
<path style="fill:#02994A;" d="M321.739,321.732c16.549-4.773,32.469-9.854,47.64-15.179
	c47.64,65.008,62.157,109.812,54.571,117.398"/>
<path style="fill:#FF7F00;" d="M491.392,189.352c0.213,0.898-0.851,6.018-9.72,14.895c-16.014,16.022-50.121,36.234-98.942,55.603
	c-11.508-14.423-23.796-28.83-36.596-42.984c2.529-14.312,4.75-28.617,6.585-42.709
	C439.318,166.556,488.919,178.466,491.392,189.352z"/>
<path style="fill:#FF9D00;" d="M491.392,189.352c0.213,0.898-0.851,6.018-9.72,14.895c-16.014,16.022-50.121,36.234-98.942,55.603
	c-11.508-14.423-23.796-28.83-36.596-42.984"/>
<path style="fill:#0793D1;" d="M275.801,239.749c-0.189-1.016-0.559-1.938-0.851-2.914c-0.291-0.945-0.504-1.906-0.882-2.828
	c-0.441-1.048-1.024-1.993-1.552-2.962c-0.425-0.788-0.788-1.591-1.276-2.339c-1.04-1.575-2.261-3.04-3.584-4.395
	c-0.087-0.087-0.15-0.197-0.236-0.284c-0.118-0.126-0.26-0.197-0.386-0.323c-1.331-1.276-2.741-2.458-4.293-3.497
	c-0.788-0.52-1.638-0.882-2.45-1.323c-0.937-0.504-1.843-1.087-2.828-1.504c-0.969-0.394-1.985-0.614-2.985-0.914
	c-0.922-0.284-1.812-0.63-2.773-0.819c-1.583-0.307-3.222-0.425-4.836-0.488c-0.394-0.016-0.764-0.126-1.166-0.118
	c-0.394-0.008-0.756,0.095-1.15,0.118c-1.623,0.055-3.237,0.173-4.844,0.488c-0.922,0.181-1.796,0.536-2.702,0.811
	c-1.016,0.299-2.048,0.52-3.033,0.937c-0.961,0.394-1.804,0.937-2.71,1.426c-0.859,0.465-1.772,0.851-2.607,1.41
	c-1.363,0.929-2.623,2.016-3.836,3.143c-0.26,0.236-0.559,0.417-0.819,0.67c-0.26,0.268-0.457,0.583-0.717,0.866
	c-1.111,1.189-2.174,2.434-3.096,3.789c-0.544,0.827-0.929,1.709-1.402,2.576c-0.488,0.898-1.032,1.764-1.441,2.725
	c-0.402,0.977-0.622,1.993-0.922,3.017c-0.276,0.898-0.638,1.788-0.819,2.733c-0.315,1.599-0.433,3.214-0.488,4.836
	c-0.016,0.394-0.134,0.756-0.118,1.158l0,0c0,7.861,2.993,15.714,8.995,21.709c11.981,11.989,31.429,11.981,43.418,0
	c5.994-5.994,8.988-13.855,9.003-21.709l0,0c0-0.433-0.118-0.819-0.126-1.229C276.226,242.907,276.124,241.316,275.801,239.749z"/>
<path style="fill:#06B3EF;" d="M267.648,224.31c-0.087-0.087-0.15-0.197-0.236-0.284c-0.118-0.126-0.26-0.197-0.386-0.323
	c-1.331-1.276-2.741-2.458-4.293-3.497c-0.788-0.52-1.638-0.882-2.45-1.323c-0.937-0.504-1.843-1.087-2.828-1.504
	c-0.969-0.394-1.985-0.614-2.985-0.914c-0.922-0.284-1.812-0.63-2.773-0.819c-1.583-0.307-3.222-0.425-4.836-0.488
	c-0.394-0.016-0.764-0.126-1.166-0.118c-0.394-0.008-0.756,0.095-1.15,0.118c-1.623,0.055-3.237,0.173-4.844,0.488
	c-0.922,0.181-1.796,0.536-2.702,0.811c-1.016,0.299-2.048,0.52-3.033,0.937c-0.961,0.394-1.804,0.937-2.71,1.426
	c-0.859,0.465-1.772,0.851-2.607,1.41c-1.363,0.929-2.623,2.016-3.836,3.143c-0.26,0.236-0.559,0.417-0.819,0.67
	c-0.26,0.268-0.457,0.583-0.717,0.866c-1.111,1.189-2.174,2.434-3.096,3.789c-0.544,0.827-0.929,1.709-1.402,2.576
	c-0.488,0.898-1.032,1.764-1.441,2.725c-0.402,0.977-0.622,1.993-0.922,3.017c-0.276,0.898-0.638,1.788-0.819,2.733
	c-0.315,1.599-0.433,3.214-0.488,4.836c-0.016,0.394-0.134,0.756-0.118,1.158c0,7.861,2.993,15.714,8.995,21.709
	c0.402,0.402,0.866,0.677,1.284,1.048l43.181-43.173C268.176,224.995,267.947,224.617,267.648,224.31z"/>
<g>
</g>
<g>
</g>
<g>
</g>
<g>
</g>
<g>
</g>
<g>
</g>
<g>
</g>
<g>
</g>
<g>
</g>
<g>
</g>
<g>
</g>
<g>
</g>
<g>
</g>
<g>
</g>
<g>
</g>
</svg>
