<?xml version="1.0" encoding="iso-8859-1"?>
<!-- Generator: Adobe Illustrator 19.0.0, SVG Export Plug-In . SVG Version: 6.00 Build 0)  -->
<svg version="1.1" id="Layer_1" xmlns="http://www.w3.org/2000/svg" xmlns:xlink="http://www.w3.org/1999/xlink" x="0px" y="0px"
	 viewBox="0 0 504.123 504.123" style="enable-background:new 0 0 504.123 504.123;" xml:space="preserve">
<circle style="fill:#47C9C9;" cx="252.062" cy="252.062" r="252.062"/>
<path style="fill:#60E2DE;" d="M0,252.062C0,112.853,112.853,0,252.062,0"/>
<path style="fill:#39ACB2;" d="M252.062,0C391.27,0,504.123,112.853,504.123,252.062S391.27,504.123,252.062,504.123"/>
<path style="fill:#47C9C9;" d="M504.123,252.062c0,139.209-112.853,252.062-252.062,252.062"/>
<g>
	<circle style="fill:#27909B;" cx="129.851" cy="171.969" r="24.946"/>
	<circle style="fill:#27909B;" cx="169.236" cy="126.015" r="6.561"/>
	<circle style="fill:#27909B;" cx="201.413" cy="85.984" r="4.6"/>
	<circle style="fill:#27909B;" cx="205.336" cy="201.492" r="15.092"/>
	<circle style="fill:#27909B;" cx="311.02" cy="296.724" r="5.254"/>
	<circle style="fill:#27909B;" cx="361.551" cy="264.507" r="9.846"/>
	<circle style="fill:#27909B;" cx="313.659" cy="347.884" r="7.877"/>
	<circle style="fill:#27909B;" cx="381.913" cy="324.254" r="10.5"/>
	<circle style="fill:#27909B;" cx="428.52" cy="219.884" r="9.846"/>
	<circle style="fill:#27909B;" cx="351.705" cy="140.461" r="19.692"/>
	<circle style="fill:#27909B;" cx="307.082" cy="223.169" r="9.192"/>
	<circle style="fill:#27909B;" cx="287.39" cy="116.831" r="6.561"/>
	<circle style="fill:#27909B;" cx="238.159" cy="138.476" r="4.592"/>
	<circle style="fill:#27909B;" cx="253.251" cy="51.184" r="14.438"/>
	<circle style="fill:#27909B;" cx="381.913" cy="81.384" r="5.254"/>
	<circle style="fill:#27909B;" cx="144.289" cy="409.6" r="17.061"/>
</g>
<g>
	<circle style="fill:#FFB000;" cx="110.159" cy="286.184" r="21.008"/>
	<circle style="fill:#FFB000;" cx="167.266" cy="242.215" r="4.592"/>
	<circle style="fill:#FFB000;" cx="203.366" cy="153.6" r="3.938"/>
	<circle style="fill:#FFB000;" cx="227.013" cy="102.4" r="7.877"/>
	<circle style="fill:#FFB000;" cx="334.651" cy="190.354" r="5.254"/>
	<circle style="fill:#FFB000;" cx="415.35" cy="269.785" r="7.223"/>
	<circle style="fill:#FFB000;" cx="373.382" cy="208.077" r="5.908"/>
	<circle style="fill:#FFB000;" cx="181.705" cy="309.169" r="15.092"/>
	<circle style="fill:#FFB000;" cx="305.782" cy="274.353" r="3.938"/>
	<circle style="fill:#FFB000;" cx="205.989" cy="269.123" r="6.561"/>
	<circle style="fill:#FFB000;" cx="51.751" cy="219.892" r="3.285"/>
	<circle style="fill:#FFB000;" cx="293.951" cy="401.723" r="7.877"/>
	<circle style="fill:#FFB000;" cx="215.19" cy="355.769" r="1.315"/>
	<circle style="fill:#FFB000;" cx="253.913" cy="286.846" r="4.592"/>
	<circle style="fill:#FFB000;" cx="263.105" cy="218.585" r="13.785"/>
	<circle style="fill:#FFB000;" cx="433.782" cy="172.631" r="16.408"/>
	<circle style="fill:#FFB000;" cx="294.613" cy="156.877" r="9.846"/>
	<circle style="fill:#FFB000;" cx="108.19" cy="366.907" r="7.223"/>
	<circle style="fill:#FFB000;" cx="163.99" cy="362.338" r="6.561"/>
	<circle style="fill:#FFB000;" cx="53.713" cy="267.815" r="5.254"/>
	<circle style="fill:#FFB000;" cx="117.382" cy="217.246" r="7.215"/>
	<circle style="fill:#FFB000;" cx="252.605" cy="362.984" r="8.531"/>
	<circle style="fill:#FFB000;" cx="349.089" cy="315.077" r="3.938"/>
	<circle style="fill:#FFB000;" cx="196.805" cy="400.384" r="10.5"/>
	<circle style="fill:#FFB000;" cx="299.213" cy="76.138" r="11.815"/>
	<circle style="fill:#FFB000;" cx="348.436" cy="66.292" r="11.162"/>
</g>
<g>
</g>
<g>
</g>
<g>
</g>
<g>
</g>
<g>
</g>
<g>
</g>
<g>
</g>
<g>
</g>
<g>
</g>
<g>
</g>
<g>
</g>
<g>
</g>
<g>
</g>
<g>
</g>
<g>
</g>
</svg>
