<?xml version="1.0" encoding="iso-8859-1"?>
<!-- Generator: Adobe Illustrator 19.0.0, SVG Export Plug-In . SVG Version: 6.00 Build 0)  -->
<svg version="1.1" id="Layer_1" xmlns="http://www.w3.org/2000/svg" xmlns:xlink="http://www.w3.org/1999/xlink" x="0px" y="0px"
	 viewBox="0 0 504.123 504.123" style="enable-background:new 0 0 504.123 504.123;" xml:space="preserve">
<g>
	<path style="fill:#0793D1;" d="M56.832,191.181c-0.693-1.662-2.308-2.749-4.104-2.749c-1.812,0-3.45,1.087-4.135,2.749
		L0.339,307.389c-0.567,1.378-0.417,2.962,0.417,4.206c0.827,1.245,2.213,1.985,3.71,1.985h17.597c1.812,0,3.45-1.103,4.135-2.765
		l10.602-25.765h31.831l10.587,25.765c0.709,1.662,2.324,2.765,4.135,2.765h17.597c0.047,0.008,0.079,0.008,0.079,0.008
		c2.489-0.008,4.474-2.009,4.474-4.474c0-0.906-0.276-1.764-0.74-2.473L56.832,191.181z M45.891,261.443l6.829-17.369l6.798,17.369"
		/>
	<path style="fill:#0793D1;" d="M211.495,288.35h-42.157v-93.342c0-2.473-2.001-4.474-4.458-4.474h-16.636
		c-2.458,0-4.458,2.001-4.458,4.474v114.089c0,2.465,2.001,4.466,4.458,4.466h63.244c2.458,0,4.458-2.001,4.458-4.466v-16.289
		C215.954,290.351,213.953,288.35,211.495,288.35z"/>
</g>
<path style="fill:#11D168;" d="M293.88,270.415c0-10.862-9.444-19.708-21.031-19.708c-11.603,0-21.031,8.846-21.031,19.708
	c0,9.381,7.073,17.306,16.479,19.243l-16.431,21.276c-0.52,0.685-0.614,1.615-0.228,2.402c0.386,0.78,1.166,1.268,2.048,1.268
	h37.494c1.26,0,2.292-1.024,2.292-2.284v-7.16c0-1.252-1.032-2.284-2.292-2.284h-17.463l15.013-19.141
	C291.982,279.568,293.88,276.047,293.88,270.415z M272.675,278.292c-4.356,0-7.893-3.537-7.893-7.877
	c0-4.356,3.537-7.885,7.893-7.885c4.309,0,7.956,3.608,7.956,7.885C280.631,274.684,276.984,278.292,272.675,278.292z"/>
<path style="fill:#0793D1;" d="M380.416,188.581c-34.721,0-62.984,28.554-62.984,63.638c0,34.997,28.262,63.472,62.984,63.472
	s62.984-28.467,62.984-63.472C443.4,217.135,415.137,188.581,380.416,188.581z M380.416,290.461
	c-19.921,0-36.124-17.156-36.124-38.235c0-21.165,16.203-38.408,36.124-38.408c19.921,0,36.124,17.243,36.124,38.408
	C416.539,273.305,400.337,290.461,380.416,290.461z"/>
<path style="fill:#11D168;" d="M490.354,277.071l12.304-21.961c0.402-0.709,0.402-1.568-0.031-2.269
	c-0.402-0.701-1.142-1.126-1.953-1.126h-32.996c-1.26,0-2.292,1.016-2.292,2.284v7.152c0,1.276,1.032,2.3,2.292,2.3h15.833
	l-11.65,20.496c-0.417,0.717-0.417,1.575,0,2.276s1.166,1.142,1.969,1.142h6.924c6.341,0,10.138,3.127,10.138,8.373
	c0,5.049-3.261,8.05-8.72,8.05c-4.419,0-7.215-2.623-7.475-7.018c-0.063-1.205-1.063-2.143-2.276-2.143h-8.491
	c-1.26,0-2.292,1.016-2.292,2.284c0,11.051,8.444,18.779,20.535,18.779c13.139,0,21.953-8.413,21.953-20.953
	C504.123,286.539,498.381,279.426,490.354,277.071z"/>
<g>
	<path style="fill:#00BDFF;" d="M169.338,288.35v-93.342c0-2.473-2.001-4.474-4.458-4.474h-16.636c-2.458,0-4.458,2.001-4.458,4.474
		v114.089c0,1.552,0.843,2.859,2.048,3.663l24.418-24.418h-0.914V288.35z"/>
	<path style="fill:#00BDFF;" d="M380.416,188.581c-34.721,0-62.984,28.554-62.984,63.638c0,17.227,6.861,32.847,17.951,44.292
		l18.527-18.519c-5.916-6.814-9.618-15.817-9.618-25.773c0-21.165,16.203-38.408,36.124-38.408c10.169,0,19.338,4.537,25.915,11.752
		l18.456-18.448C413.389,195.678,397.706,188.581,380.416,188.581z"/>
	<path style="fill:#00BDFF;" d="M56.832,191.181c-0.693-1.662-2.308-2.749-4.104-2.749c-1.812,0-3.45,1.087-4.135,2.749
		L0.874,306.105l45.245-45.253l6.601-16.778l2.859,7.326l18.55-18.55L56.832,191.181z"/>
</g>
<g>
</g>
<g>
</g>
<g>
</g>
<g>
</g>
<g>
</g>
<g>
</g>
<g>
</g>
<g>
</g>
<g>
</g>
<g>
</g>
<g>
</g>
<g>
</g>
<g>
</g>
<g>
</g>
<g>
</g>
</svg>
